HIERARCHY
ROOT hip
{
  OFFSET 0 0 0
  CHANNELS 6 Xposition Yposition Zposition Zrotation Yrotation Xrotation
  JOINT abdomen
  {
    OFFSET 0 20.6881 -0.73152
    CHANNELS 3 Zrotation Xrotation Yrotation
    JOINT chest
    {
      OFFSET 0 11.7043 -0.48768
      CHANNELS 3 Zrotation Xrotation Yrotation
      JOINT neck
      {
        OFFSET 0 22.1894 -2.19456
        CHANNELS 3 Zrotation Xrotation Yrotation
        JOINT head
        {
          OFFSET -0.24384 7.07133 1.2192
          CHANNELS 3 Zrotation Xrotation Yrotation
          JOINT leftEye
          {
            OFFSET 4.14528 8.04674 8.04672
            CHANNELS 3 Zrotation Xrotation Yrotation
            End Site
            {
              OFFSET 1 0 0
            }
          }
          JOINT rightEye
          {
            OFFSET -3.6576 8.04674 8.04672
            CHANNELS 3 Zrotation Xrotation Yrotation
            End Site
            {
              OFFSET 1 0 0
            }
          }
        }
      }
      JOINT rCollar
      {
        OFFSET -2.68224 19.2634 -4.8768
        CHANNELS 3 Zrotation Xrotation Yrotation
        JOINT rShldr
        {
          OFFSET -8.77824 -1.95073 1.46304
          CHANNELS 3 Zrotation Xrotation Yrotation
          JOINT rForeArm
          {
            OFFSET -28.1742 -1.7115 0.48768
            CHANNELS 3 Zrotation Xrotation Yrotation
            JOINT rHand
            {
              OFFSET -22.5879 0.773209 7.07136
              CHANNELS 3 Zrotation Xrotation Yrotation
              JOINT rThumb1
              {
                OFFSET -1.2192 -0.487915 3.41376
                CHANNELS 3 Zrotation Xrotation Yrotation
                JOINT rThumb2
                {
                  OFFSET -3.37035 -0.52449 3.41376
                  CHANNELS 3 Zrotation Xrotation Yrotation
                  End Site
                  {
                    OFFSET -1.78271 -1.18214 1.43049
                  }
                }
              }
              JOINT rIndex1
              {
                OFFSET -7.75947 0.938293 5.60832
                CHANNELS 3 Zrotation Xrotation Yrotation
                JOINT rIndex2
                {
                  OFFSET -2.54057 -0.884171 1.56538
                  CHANNELS 3 Zrotation Xrotation Yrotation
                  End Site
                  {
                    OFFSET -1.62519 -0.234802 1.16502
                  }
                }
              }
              JOINT rMid1
              {
                OFFSET -8.24714 1.18213 3.41376
                CHANNELS 3 Zrotation Xrotation Yrotation
                JOINT rMid2
                {
                  OFFSET -3.10165 -0.590103 1.0647
                  CHANNELS 3 Zrotation Xrotation Yrotation
                  End Site
                  {
                    OFFSET -2.48547 -0.328903 0.83742
                  }
                }
              }
              JOINT rRing1
              {
                OFFSET -8.82822 0.546677 1.51678
                CHANNELS 3 Zrotation Xrotation Yrotation
                JOINT rRing2
                {
                  OFFSET -2.60934 -0.819778 -0.0198488
                  CHANNELS 3 Zrotation Xrotation Yrotation
                  End Site
                  {
                    OFFSET -2.33842 -0.294052 0.168128
                  }
                }
              }
              JOINT rPinky1
              {
                OFFSET -8.27202 -0.0477905 -0.4584
                CHANNELS 3 Zrotation Xrotation Yrotation
                JOINT rPinky2
                {
                  OFFSET -1.82734 -0.647385 -0.700984
                  CHANNELS 3 Zrotation Xrotation Yrotation
                  End Site
                  {
                    OFFSET -1.69225 -0.51767 -0.607171
                  }
                }
              }
            }
          }
        }
      }
      JOINT lCollar
      {
        OFFSET 2.68224 19.2634 -4.8768
        CHANNELS 3 Zrotation Xrotation Yrotation
        JOINT lShldr
        {
          OFFSET 8.77824 -1.95073 1.46304
          CHANNELS 3 Zrotation Xrotation Yrotation
          JOINT lForeArm
          {
            OFFSET 28.1742 -1.7115 0.48768
            CHANNELS 3 Zrotation Xrotation Yrotation
            JOINT lHand
            {
              OFFSET 22.5879 0.773209 7.07136
              CHANNELS 3 Zrotation Xrotation Yrotation
              JOINT lThumb1
              {
                OFFSET 1.2192 -0.487915 3.41376
                CHANNELS 3 Zrotation Xrotation Yrotation
                JOINT lThumb2
                {
                  OFFSET 3.37035 -0.52449 3.41376
                  CHANNELS 3 Zrotation Xrotation Yrotation
                  End Site
                  {
                    OFFSET 1.78271 -1.18214 1.43049
                  }
                }
              }
              JOINT lIndex1
              {
                OFFSET 7.75947 0.938293 5.60832
                CHANNELS 3 Zrotation Xrotation Yrotation
                JOINT lIndex2
                {
                  OFFSET 2.54057 -0.884171 1.56538
                  CHANNELS 3 Zrotation Xrotation Yrotation
                  End Site
                  {
                    OFFSET 1.62519 -0.234802 1.16502
                  }
                }
              }
              JOINT lMid1
              {
                OFFSET 8.24714 1.18213 3.41376
                CHANNELS 3 Zrotation Xrotation Yrotation
                JOINT lMid2
                {
                  OFFSET 3.10165 -0.590103 1.0647
                  CHANNELS 3 Zrotation Xrotation Yrotation
                  End Site
                  {
                    OFFSET 2.48547 -0.328903 0.83742
                  }
                }
              }
              JOINT lRing1
              {
                OFFSET 8.82822 0.546677 1.51678
                CHANNELS 3 Zrotation Xrotation Yrotation
                JOINT lRing2
                {
                  OFFSET 2.60934 -0.819778 -0.0198488
                  CHANNELS 3 Zrotation Xrotation Yrotation
                  End Site
                  {
                    OFFSET 2.33842 -0.294052 0.168128
                  }
                }
              }
              JOINT lPinky1
              {
                OFFSET 8.27202 -0.0477905 -0.4584
                CHANNELS 3 Zrotation Xrotation Yrotation
                JOINT lPinky2
                {
                  OFFSET 1.82734 -0.647385 -0.700984
                  CHANNELS 3 Zrotation Xrotation Yrotation
                  End Site
                  {
                    OFFSET 1.69225 -0.51767 -0.607171
                  }
                }
              }
            }
          }
        }
      }
    }
  }
  JOINT rButtock
  {
    OFFSET -8.77824 4.35084 1.2192
    CHANNELS 3 Zrotation Xrotation Yrotation
    JOINT rThigh
    {
      OFFSET 0 -1.70687 -2.19456
      CHANNELS 3 Zrotation Xrotation Yrotation
      JOINT rShin
      {
        OFFSET 0 -36.8199 0.73152
        CHANNELS 3 Zrotation Xrotation Yrotation
        JOINT rFoot
        {
          OFFSET 0.73152 -45.1104 -5.12064
          CHANNELS 3 Zrotation Xrotation Yrotation
          End Site
          {
            OFFSET -1.1221 -3.69964 12.103
          }
        }
      }
    }
  }
  JOINT lButtock
  {
    OFFSET 8.77824 4.35084 1.2192
    CHANNELS 3 Zrotation Xrotation Yrotation
    JOINT lThigh
    {
      OFFSET 0 -1.70687 -2.19456
      CHANNELS 3 Zrotation Xrotation Yrotation
      JOINT lShin
      {
        OFFSET 0 -36.8199 0.73152
        CHANNELS 3 Zrotation Xrotation Yrotation
        JOINT lFoot
        {
          OFFSET -0.73152 -45.1104 -5.12064
          CHANNELS 3 Zrotation Xrotation Yrotation
          End Site
          {
            OFFSET 1.1221 -3.69964 12.103
          }
        }
      }
    }
  }
}
MOTION
Frames:	4
Frame Time:	0.00833333
5.01273 82.4855 52.8742 0.0 0.0 0.0 -4.35895 0.00629236 -0.117456 -1.20159 0.0324761 -0.207681 -1.09559e-13 -1.59028e-15 -8.94531e-16 -3.29389e-13 -6.36111e-15 -2.38697e-15 -0.0 0.0 0.0 -0.0 0.0 0.0 -5.53676e-14 -5.17539e-16 -1.98785e-16 -1.15352e-12 -1.18153e-14 -1.15295e-14 -1.9885e-11 5.59042e-12 1.90833e-14 -2.27911e-10 -8.00993e-12 -2.08008e-12 -5.37553e-10 -5.23975e-12 -4.39235e-12 -9.28345e-10 -9.04868e-12 -7.57449e-12 -5.3755e-10 -5.23798e-12 -4.40189e-12 7.73091 5.47488 0.417314 -5.37554e-10 -5.23996e-12 -4.39235e-12 2.90554 0.965183 0.102902 -5.37545e-10 -5.23967e-12 -4.39155e-12 10.2786 0.731801 0.0259123 -5.3756e-10 -5.23917e-12 -4.37962e-12 2.22167 -0.733487 -0.20892 -5.54584e-14 -5.25692e-16 -5.96354e-16 -1.15584e-12 -1.11195e-14 -1.35174e-14 -1.99285e-11 -6.32771e-12 -6.36111e-15 -2.27802e-10 3.94853e-12 -2.03874e-12 -5.37408e-10 -5.1604e-12 -4.39553e-12 -9.2807e-10 -8.91509e-12 -7.56654e-12 -5.37416e-10 -5.15727e-12 -4.39235e-12 -7.73091 5.47488 -0.417314 -5.37407e-10 -5.15985e-12 -4.39235e-12 -2.90554 0.965183 -0.102902 -5.37418e-10 -5.16045e-12 -4.39871e-12 -10.2786 0.731801 -0.0259123 -5.37405e-10 -5.15965e-12 -4.40825e-12 -2.22167 -0.733487 0.20892 -2.03217e-16 0.0 -3.88251e-19 -2.88807 -1.94435 0.0304142 -0.00797325 -2.07874 -0.0650983 -0.422378 4.00217 0.127133 2.03217e-16 0.0 3.88251e-19 -3.72539 -11.2507 0.4838 -0.0143132 14.7725 -0.388797 0.544847 -3.54243 0.0125086
2.78843 82.171 50.6185 -9.6182 1.1091 9.7884 -1.87946 -3.43181 0.286075 -1.66355 -2.34761 -0.218083 -3.17747 3.76699 -3.23962 5.90879 -1.67793 -6.12513 -0.0 0.0 0.0 -0.0 0.0 0.0 -4.98207e-14 -5.29421e-14 2.84316e-15 23.0751 -3.56292 -3.47292 -2.6803 -1.01744 4.37893 0.412145 14.3264 1.79355 -1.02258e-09 1.9459e-10 3.27399e-10 -1.74836e-09 3.16344e-10 5.89088e-10 -1.02258e-09 1.94591e-10 3.27391e-10 7.73091 5.47488 0.417314 -1.02258e-09 1.94589e-10 3.27405e-10 2.90554 0.965183 0.102902 -1.02257e-09 1.94589e-10 3.27401e-10 10.2786 0.731801 0.0259123 -1.02259e-09 1.9459e-10 3.27412e-10 2.22167 -0.733487 -0.20892 -4.99127e-14 -5.29483e-14 2.49995e-15 -23.4966 -6.63068 3.90407 1.9457 -0.666604 -3.23393 -0.422155 14.5046 -1.81066 3.18351e-10 1.96343e-10 -2.14204e-10 5.36437e-10 3.31707e-10 -3.97714e-10 3.18344e-10 1.96346e-10 -2.14202e-10 -7.73091 5.47488 -0.417314 3.18352e-10 1.96344e-10 -2.142e-10 -2.90554 0.965183 -0.102902 3.18342e-10 1.96344e-10 -2.14206e-10 -10.2786 0.731801 -0.0259123 3.18355e-10 1.96344e-10 -2.14215e-10 -2.22167 -0.733487 0.20892 -2.03217e-16 0.0 -3.88251e-19 -1.15776 -3.04268 6.94853 0.00478958 -1.85623 0.0410275 -0.901146 1.1474 -6.62569 2.03217e-16 0.0 3.88251e-19 -2.85271 -10.5227 -13.2532 -0.00277243 14.094 -0.19148 1.7626 -10.8204 14.8732
2.83648 82.1647 50.6337 -9.3988 1.1183 9.7171 0.812082 -7.04466 0.712503 -2.15538 -4.8764 -0.231719 -6.0771 7.70476 -6.7068 11.765 -3.38046 -12.6094 -0.0 0.0 0.0 -0.0 0.0 0.0 -4.66966e-14 -1.12838e-13 7.08481e-15 46.996 -7.27084 -7.19375 -5.35369 -2.07771 9.02655 -0.257966 29.416 4.10414 -1.5622e-09 4.09994e-10 7.01852e-10 -2.6605e-09 6.66405e-10 1.26164e-09 -1.5622e-09 4.09994e-10 7.01845e-10 7.73091 5.47488 0.417314 -1.5622e-09 4.09992e-10 7.01864e-10 2.90554 0.965183 0.102902 -1.56219e-09 4.09991e-10 7.01854e-10 10.2786 0.731801 0.0259123 -1.56221e-09 4.09993e-10 7.01865e-10 2.22167 -0.733487 -0.20892 -4.67912e-14 -1.12842e-13 6.79906e-15 -47.3353 -13.5876 8.21156 3.92067 -1.36412 -6.65354 0.266599 29.8257 -4.16135 1.26155e-09 4.23061e-10 -4.33618e-10 2.15098e-09 7.15102e-10 -8.07564e-10 1.26154e-09 4.23065e-10 -4.33615e-10 -7.73091 5.47488 -0.417314 1.26155e-09 4.23064e-10 -4.33612e-10 -2.90554 0.965183 -0.102902 1.26154e-09 4.23063e-10 -4.33619e-10 -10.2786 0.731801 -0.0259123 1.26155e-09 4.23063e-10 -4.33627e-10 -2.22167 -0.733487 0.20892 -2.03217e-16 0.0 -3.88251e-19 0.966807 -4.10936 14.2736 0.0173701 -1.62027 0.153156 -2.13127 -1.8005 -13.7611 2.03217e-16 0.0 3.88251e-19 -1.53793 -9.15708 -27.672 0.0145624 13.3753 0.015665 7.09917 -16.5997 31.4688
2.89873 82.1564 50.6583 -9.1121 1.1251 9.6535 3.2267 -10.3063 1.1095 -2.59016 -7.10777 -0.240183 -8.24043 11.1552 -9.88644 16.6674 -4.80415 -18.4346 -0.0 0.0 0.0 -0.0 0.0 0.0 -3.87267e-14 -1.57791e-13 8.92706e-15 67.9188 -10.5305 -10.5788 -7.57836 -2.98109 13.1528 -2.27483 42.7788 7.11119 -1.99263e-09 5.94249e-10 9.90982e-10 -3.38838e-09 9.67128e-10 1.78241e-09 -1.99263e-09 5.9425e-10 9.90976e-10 7.73091 5.47488 0.417314 -1.99263e-09 5.94248e-10 9.90999e-10 2.90554 0.965183 0.102902 -1.99263e-09 5.94246e-10 9.90985e-10 10.2786 0.731801 0.0259123 -1.99264e-09 5.94248e-10 9.90995e-10 2.22167 -0.733487 -0.20892 -3.88213e-14 -1.57794e-13 8.69256e-15 -67.6606 -19.5115 12.3534 5.61244 -1.97435 -9.70695 2.34953 43.3061 -7.23565 2.02987e-09 5.99349e-10 -6.33822e-10 3.46545e-09 1.01295e-09 -1.17801e-09 2.02986e-09 5.99353e-10 -6.3382e-10 -7.73091 5.47488 -0.417314 2.02987e-09 5.99353e-10 -6.33816e-10 -2.90554 0.965183 -0.102902 2.02986e-09 5.99352e-10 -6.33822e-10 -10.2786 0.731801 -0.0259123 2.02988e-09 5.99352e-10 -6.3383e-10 -2.22167 -0.733487 0.20892 -2.03217e-16 0.0 -3.88251e-19 3.07832 -4.96146 20.837 0.0278416 -1.41119 0.253206 -3.841 -4.26133 -20.1849 2.03217e-16 0.0 3.88251e-19 0.0593743 -7.57236 -40.4528 0.0346823 12.7365 0.199654 14.6504 -18.7742 46.9553
